<?xml version="1.0" encoding="UTF-8" standalone="no"?>
<!-- Created with Inkscape (http://www.inkscape.org/) -->

<svg
   width="127.99999"
   height="127.99999"
   viewBox="0 0 33.866664 33.866664"
   version="1.1"
   id="svg1"
   xml:space="preserve"
   xmlns="http://www.w3.org/2000/svg"
   xmlns:svg="http://www.w3.org/2000/svg"><defs
     id="defs1" /><g
     id="layer1"
     transform="translate(-32.279176,-138.64166)"
     style="display:none"><circle
       cx="49.212509"
       cy="155.575"
       r="15.743801"
       id="circle2892"
       style="display:inline;opacity:0.2;fill:none;fill-opacity:1;stroke:currentColor;stroke-width:0.261937;stroke-linecap:butt;stroke-linejoin:miter;stroke-miterlimit:4;stroke-dasharray:none;stroke-dashoffset:0;stroke-opacity:1;marker:none;marker-start:none;marker-mid:none;marker-end:none;paint-order:normal;enable-background:new" /><rect
       ry="2.096508"
       rx="2.096508"
       y="141.94769"
       x="35.585205"
       height="27.254602"
       width="27.254602"
       id="rect2896"
       style="display:inline;opacity:0.2;fill:none;fill-opacity:1;stroke:currentColor;stroke-width:0.261937;stroke-linecap:butt;stroke-linejoin:miter;stroke-miterlimit:4;stroke-dasharray:none;stroke-dashoffset:0;stroke-opacity:1;marker:none;marker-start:none;marker-mid:none;marker-end:none;paint-order:normal;enable-background:new" /></g><g
     id="layer2"
     transform="translate(218.78553,220.92419)"><g
       id="g2"
       transform="matrix(0.018276,0,0,0.01827182,-220.56682,-222.7012)"><title
         id="title2">Layer 1</title><rect
         id="svg_4"
         width="1196.005"
         height="1198.002"
         x="425.99899"
         y="426.00101"
         fill="#ffffff"
         stroke="#000000"
         stroke-width="1.5" /><g
         id="document"
         transform="translate(1024,1024)"><g
           id="svg_1"><path
             id="svg_2"
             fill="#fa3c4c"
             stroke="#fa3c4c"
             stroke-linecap="square"
             stroke-width="95.46"
             d="m -643.191,-467.044 c 0.963,-2.484 1.698,-5.189 2.183,-8.102 6.801,-49.869 32.922,-94.505 70.859,-125.33 26.984,-21.446 59.604,-35.894 94.836,-40.699 2.377,-0.396 4.615,-0.958 6.707,-1.674 6.729,-0.712 13.565,-1.078 20.491,-1.078 99.283,0 180.127,72.335 192.892,168.781 1.418,15.601 14.183,26.948 29.785,26.948 h 7.092 c 15.601,0 26.948,-9.928 29.784,-26.948 9.929,-93.61 92.1916,-168.781 191.4744,-168.781 99.2826,0 180.1276,72.335 192.8926,168.781 1.418,15.601 14.183,26.948 29.785,26.948 h 5.673 c 15.601,0 26.948,-9.928 29.785,-26.948 9.928,-93.61 93.609,-168.781 191.474,-168.781 52.716,0 100.905,20.989 136.144,55.429 34.439,35.238 55.428,83.427 55.428,136.143 0,97.864 -75.172,181.546 -168.781,191.474 -17.02,2.837 -26.948,14.183 -26.948,29.785 v 5.673 c 0,15.602 11.346,28.367 26.948,29.785 96.446,12.765 168.781,93.61 168.781,192.89239 0,99.28281 -75.172,181.54561 -168.781,191.47361 -17.02,2.837 -26.948,14.184 -26.948,29.785 v 7.092 c 0,15.601 11.346,28.366 26.948,29.785 96.446,12.765 168.781,93.609 168.781,192.892 0,6.334 -0.306,12.592 -0.903,18.762 -0.963,2.484 -1.698,5.189 -2.183,8.102 -6.801,49.869 -32.922,94.506 -70.86,125.331 -26.984,21.445 -59.603,35.893 -94.835,40.697 -2.377,0.397 -4.615,0.959 -6.707,1.675 -6.729,0.712 -13.565,1.078 -20.491,1.078 -99.283,0 -180.127,-72.335 -192.892,-168.781 -1.418,-15.601 -14.183,-26.948 -29.785,-26.948 h -7.092 c -15.601,0 -26.948,9.928 -29.784,26.948 -9.929,93.61 -92.1916,168.781 -191.4744,168.781 -99.2826,0 -180.1276,-72.335 -192.8926,-168.781 -1.418,-15.601 -14.183,-26.948 -29.785,-26.948 h -5.673 c -15.601,0 -26.948,9.928 -29.785,26.948 -9.928,93.61 -93.609,168.781 -191.474,168.781 -52.716,0 -100.905,-20.989 -136.144,-55.429 v 0 c -34.439,-35.238 -55.428,-83.427 -55.428,-136.143 0,-97.864 75.172,-181.546 168.781,-191.474 17.02,-2.837 26.948,-14.183 26.948,-29.785 v -5.673 c 0,-15.602 -11.346,-28.367 -26.948,-29.785 -96.446,-12.765 -168.781,-93.61 -168.781,-192.8924 0,-99.2828 75.172,-181.5456 168.781,-191.4736 17.02,-2.837 26.948,-14.184 26.948,-29.785 v -7.092 c 0,-15.602 -11.346,-28.366 -26.948,-29.785 -96.446,-12.765 -168.781,-93.609 -168.781,-192.892 0,-6.333 0.306,-12.592 0.903,-18.762 z m 168.026,-236.715 c -2.341,-0.63 -4.765,-1.05 -7.24,-1.24 -65.826,8.976 -124.156,43.201 -164.588,92.479 -30.473,36.408 -51.156,81.267 -57.839,130.282 0.162,2.11 0.491,4.183 0.975,6.199 -0.81,8.204 -1.225,16.517 -1.225,24.92 0,96.446 55.315,181.546 134.741,225.514 -79.426,42.55 -134.741,130.4861 -134.741,225.51393 0,96.44627 55.315,181.54607 134.741,225.51407 -79.426,42.55 -134.741,127.649 -134.741,225.514 0,7.177 0.292,14.281 0.864,21.301 -0.749,3.177 -1.032,6.538 -0.766,10 7.826,58.045 34.546,109.792 73.816,148.759 38.968,39.272 90.717,65.994 148.763,73.82 3.462,0.266 6.823,-0.017 10,-0.766 7.021,0.572 14.125,0.864 21.302,0.864 97.864,0 182.964,-55.315 225.513,-134.741 43.969,79.426 129.0681,134.741 225.51425,134.741 95.02785,0 182.96375,-55.315 225.51375,-134.741 43.968,79.426 129.068,134.741 225.514,134.741 8.162,0 16.239,-0.391 24.213,-1.156 2.341,0.63 4.765,1.05 7.24,1.24 65.826,-8.976 124.156,-43.201 164.588,-92.479 30.473,-36.408 51.156,-81.267 57.839,-130.282 -0.162,-2.11 -0.491,-4.183 -0.975,-6.199 0.81,-8.204 1.225,-16.517 1.225,-24.92 0,-96.446 -55.315,-181.546 -134.741,-225.514 79.426,-42.55 134.741,-130.4861 134.741,-225.51395 0,-96.44625 -55.315,-181.54605 -134.741,-225.51405 79.426,-42.55 134.741,-127.649 134.741,-225.514 0,-7.177 -0.292,-14.281 -0.864,-21.301 0.749,-3.177 1.032,-6.538 0.766,-10 -7.826,-58.045 -34.546,-109.792 -73.816,-148.759 -38.968,-39.272 -90.717,-65.994 -148.763,-73.82 -3.462,-0.266 -6.823,0.017 -10,0.766 -7.021,-0.572 -14.125,-0.864 -21.302,-0.864 -97.864,0 -182.964,55.315 -225.513,134.741 C 181.621,-649.6 96.5219,-704.915 0.07575,-704.915 c -95.02785,0 -182.96375,55.315 -225.51375,134.741 -43.968,-79.426 -129.068,-134.741 -225.514,-134.741 -8.162,0 -16.239,0.391 -24.213,1.156 z" /><path
             id="svg_3"
             fill="none"
             stroke="#fa3c4c"
             stroke-linecap="round"
             stroke-linejoin="round"
             stroke-width="116.88"
             d="M 205.502,-76.4829 C 205.502,36.6755 113.819,128.358 0.66018,128.358 -112.498,128.358 -204.181,36.6754 -204.181,-76.4829" /></g></g></g></g></svg>
