<svg xmlns="http://www.w3.org/2000/svg" width="2048" height="2048"><g><title>background</title><rect id="canvas_background" width="802" height="602" x="-1" y="-1" fill="none"/></g><g><title>Layer 1</title><rect id="svg_4" width="1196.005" height="1198.002" x="425.999" y="426.001" fill="#fff" stroke="#000" stroke-width="1.5"/><g id="document" transform="matrix(1,0,0,1,1024,1024)"><g id="svg_1"><path id="svg_2" fill="#FA3C4C" stroke="#FA3C4C" stroke-linecap="square" stroke-width="95.46" d="m-643.191,-467.044c0.963,-2.484 1.698,-5.189 2.183,-8.102c6.801,-49.869 32.922,-94.505 70.859,-125.33c26.984,-21.446 59.604,-35.894 94.836,-40.699c2.377,-0.396 4.615,-0.958 6.707,-1.674c6.729,-0.712 13.565,-1.078 20.491,-1.078c99.283,0 180.127,72.335 192.892,168.781c1.418,15.601 14.183,26.948 29.785,26.948l7.092,0c15.601,0 26.948,-9.928 29.784,-26.948c9.929,-93.61 92.1916,-168.781 191.4744,-168.781c99.2826,0 180.1276,72.335 192.8926,168.781c1.418,15.601 14.183,26.948 29.785,26.948l5.673,0c15.601,0 26.948,-9.928 29.785,-26.948c9.928,-93.61 93.609,-168.781 191.474,-168.781c52.716,0 100.905,20.989 136.144,55.429c34.439,35.238 55.428,83.427 55.428,136.143c0,97.864 -75.172,181.546 -168.781,191.474c-17.02,2.837 -26.948,14.183 -26.948,29.785l0,5.673c0,15.602 11.346,28.367 26.948,29.785c96.446,12.765 168.781,93.61 168.781,192.89239c0,99.28281 -75.172,181.54561 -168.781,191.47361c-17.02,2.837 -26.948,14.184 -26.948,29.785l0,7.092c0,15.601 11.346,28.366 26.948,29.785c96.446,12.765 168.781,93.609 168.781,192.892c0,6.334 -0.306,12.592 -0.903,18.762c-0.963,2.484 -1.698,5.189 -2.183,8.102c-6.801,49.869 -32.922,94.506 -70.86,125.331c-26.984,21.445 -59.603,35.893 -94.835,40.697c-2.377,0.397 -4.615,0.959 -6.707,1.675c-6.729,0.712 -13.565,1.078 -20.491,1.078c-99.283,0 -180.127,-72.335 -192.892,-168.781c-1.418,-15.601 -14.183,-26.948 -29.785,-26.948l-7.092,0c-15.601,0 -26.948,9.928 -29.784,26.948c-9.929,93.61 -92.1916,168.781 -191.4744,168.781c-99.2826,0 -180.1276,-72.335 -192.8926,-168.781c-1.418,-15.601 -14.183,-26.948 -29.785,-26.948l-5.673,0c-15.601,0 -26.948,9.928 -29.785,26.948c-9.928,93.61 -93.609,168.781 -191.474,168.781c-52.716,0 -100.905,-20.989 -136.144,-55.429l0,0c-34.439,-35.238 -55.428,-83.427 -55.428,-136.143c0,-97.864 75.172,-181.546 168.781,-191.474c17.02,-2.837 26.948,-14.183 26.948,-29.785l0,-5.673c0,-15.602 -11.346,-28.367 -26.948,-29.785c-96.446,-12.765 -168.781,-93.61 -168.781,-192.8924c0,-99.2828 75.172,-181.5456 168.781,-191.4736c17.02,-2.837 26.948,-14.184 26.948,-29.785l0,-7.092c0,-15.602 -11.346,-28.366 -26.948,-29.785c-96.446,-12.765 -168.781,-93.609 -168.781,-192.892c0,-6.333 0.306,-12.592 0.903,-18.762l0,0zm168.026,-236.715c-2.341,-0.63 -4.765,-1.05 -7.24,-1.24c-65.826,8.976 -124.156,43.201 -164.588,92.479c-30.473,36.408 -51.156,81.267 -57.839,130.282c0.162,2.11 0.491,4.183 0.975,6.199c-0.81,8.204 -1.225,16.517 -1.225,24.92c0,96.446 55.315,181.546 134.741,225.514c-79.426,42.55 -134.741,130.4861 -134.741,225.51393c0,96.44627 55.315,181.54607 134.741,225.51407c-79.426,42.55 -134.741,127.649 -134.741,225.514c0,7.177 0.292,14.281 0.864,21.301c-0.749,3.177 -1.032,6.538 -0.766,10c7.826,58.045 34.546,109.792 73.816,148.759c38.968,39.272 90.717,65.994 148.763,73.82c3.462,0.266 6.823,-0.017 10,-0.766c7.021,0.572 14.125,0.864 21.302,0.864c97.864,0 182.964,-55.315 225.513,-134.741c43.969,79.426 129.0681,134.741 225.51425,134.741c95.02785,0 182.96375,-55.315 225.51375,-134.741c43.968,79.426 129.068,134.741 225.514,134.741c8.162,0 16.239,-0.391 24.213,-1.156c2.341,0.63 4.765,1.05 7.24,1.24c65.826,-8.976 124.156,-43.201 164.588,-92.479c30.473,-36.408 51.156,-81.267 57.839,-130.282c-0.162,-2.11 -0.491,-4.183 -0.975,-6.199c0.81,-8.204 1.225,-16.517 1.225,-24.92c0,-96.446 -55.315,-181.546 -134.741,-225.514c79.426,-42.55 134.741,-130.4861 134.741,-225.51395c0,-96.44625 -55.315,-181.54605 -134.741,-225.51405c79.426,-42.55 134.741,-127.649 134.741,-225.514c0,-7.177 -0.292,-14.281 -0.864,-21.301c0.749,-3.177 1.032,-6.538 0.766,-10c-7.826,-58.045 -34.546,-109.792 -73.816,-148.759c-38.968,-39.272 -90.717,-65.994 -148.763,-73.82c-3.462,-0.266 -6.823,0.017 -10,0.766c-7.021,-0.572 -14.125,-0.864 -21.302,-0.864c-97.864,0 -182.964,55.315 -225.513,134.741c-43.969,-79.426 -129.0681,-134.741 -225.51425,-134.741c-95.02785,0 -182.96375,55.315 -225.51375,134.741c-43.968,-79.426 -129.068,-134.741 -225.514,-134.741c-8.162,0 -16.239,0.391 -24.213,1.156l0,0z"/><path id="svg_3" fill="none" stroke="#FA3C4C" stroke-linecap="round" stroke-linejoin="round" stroke-width="116.88" d="m205.502,-76.4829c0,113.1584 -91.683,204.8409 -204.84182,204.8409c-113.15818,0 -204.84118,-91.6826 -204.84118,-204.8409"/></g></g></g></svg>