<svg xmlns="http://www.w3.org/2000/svg" xmlns:xlink="http://www.w3.org/1999/xlink" width="2048" height="2048" version="1.1" viewBox="0 0 2048 2048"><g id="document"><g><path fill="#FA3C4C" fill-opacity="1" stroke="#FA3C4C" stroke-linecap="square" stroke-linejoin="miter" stroke-width="95.46" d="M-643.191,-467.044 C-642.228,-469.528 -641.493,-472.233 -641.008,-475.146 C-634.207,-525.015 -608.086,-569.651 -570.149,-600.476 C-543.165,-621.922 -510.545,-636.37 -475.313,-641.175 C-472.936,-641.571 -470.698,-642.133 -468.606,-642.849 C-461.877,-643.561 -455.041,-643.927 -448.115,-643.927 C-348.832,-643.927 -267.988,-571.592 -255.223,-475.146 C-253.805,-459.545 -241.04,-448.198 -225.438,-448.198 L-218.346,-448.198 C-202.745,-448.198 -191.398,-458.126 -188.562,-475.146 C-178.633,-568.756 -96.3704,-643.927 2.9124,-643.927 C102.195,-643.927 183.04,-571.592 195.805,-475.146 C197.223,-459.545 209.988,-448.198 225.59,-448.198 L231.263,-448.198 C246.864,-448.198 258.211,-458.126 261.048,-475.146 C270.976,-568.756 354.657,-643.927 452.522,-643.927 C505.238,-643.927 553.427,-622.938 588.666,-588.498 C623.105,-553.26 644.094,-505.071 644.094,-452.355 C644.094,-354.491 568.922,-270.809 475.313,-260.881 C458.293,-258.044 448.365,-246.698 448.365,-231.096 L448.365,-225.423 C448.365,-209.821 459.711,-197.056 475.313,-195.638 C571.759,-182.873 644.094,-102.028 644.094,-2.74561 C644.094,96.5372 568.922,178.8 475.313,188.728 C458.293,191.565 448.365,202.912 448.365,218.513 L448.365,225.605 C448.365,241.206 459.711,253.971 475.313,255.39 C571.759,268.155 644.094,348.999 644.094,448.282 C644.094,454.616 643.788,460.874 643.191,467.044 C642.228,469.528 641.493,472.233 641.008,475.146 C634.207,525.015 608.086,569.652 570.148,600.477 C543.164,621.922 510.545,636.37 475.313,641.174 C472.936,641.571 470.698,642.133 468.606,642.849 C461.877,643.561 455.041,643.927 448.115,643.927 C348.832,643.927 267.988,571.592 255.223,475.146 C253.805,459.545 241.04,448.198 225.438,448.198 L218.346,448.198 C202.745,448.198 191.398,458.126 188.562,475.146 C178.633,568.756 96.3704,643.927 -2.9124,643.927 C-102.195,643.927 -183.04,571.592 -195.805,475.146 C-197.223,459.545 -209.988,448.198 -225.59,448.198 L-231.263,448.198 C-246.864,448.198 -258.211,458.126 -261.048,475.146 C-270.976,568.756 -354.657,643.927 -452.522,643.927 C-505.238,643.927 -553.427,622.938 -588.666,588.498 L-588.666,588.498 C-623.105,553.26 -644.094,505.071 -644.094,452.355 C-644.094,354.491 -568.922,270.809 -475.313,260.881 C-458.293,258.044 -448.365,246.698 -448.365,231.096 L-448.365,225.423 C-448.365,209.821 -459.711,197.056 -475.313,195.638 C-571.759,182.873 -644.094,102.028 -644.094,2.7456 C-644.094,-96.5372 -568.922,-178.8 -475.313,-188.728 C-458.293,-191.565 -448.365,-202.912 -448.365,-218.513 L-448.365,-225.605 C-448.365,-241.207 -459.711,-253.971 -475.313,-255.39 C-571.759,-268.155 -644.094,-348.999 -644.094,-448.282 C-644.094,-454.615 -643.788,-460.874 -643.191,-467.044 L-643.191,-467.044 Z M-475.165,-703.759 C-477.506,-704.389 -479.93,-704.809 -482.405,-704.999 C-548.231,-696.023 -606.561,-661.798 -646.993,-612.52 C-677.466,-576.112 -698.149,-531.253 -704.832,-482.238 C-704.67,-480.128 -704.341,-478.055 -703.857,-476.039 C-704.667,-467.835 -705.082,-459.522 -705.082,-451.119 C-705.082,-354.673 -649.767,-269.573 -570.341,-225.605 C-649.767,-183.055 -705.082,-95.1189 -705.082,-0.0910675 C-705.082,96.3552 -649.767,181.455 -570.341,225.423 C-649.767,267.973 -705.082,353.072 -705.082,450.937 C-705.082,458.114 -704.79,465.218 -704.218,472.238 C-704.967,475.415 -705.25,478.776 -704.984,482.238 C-697.158,540.283 -670.438,592.03 -631.168,630.997 C-592.2,670.269 -540.451,696.991 -482.405,704.817 C-478.943,705.083 -475.582,704.8 -472.405,704.051 C-465.384,704.623 -458.28,704.915 -451.103,704.915 C-353.239,704.915 -268.139,649.6 -225.59,570.174 C-181.621,649.6 -96.5219,704.915 -0.0757519,704.915 C94.9521,704.915 182.888,649.6 225.438,570.174 C269.406,649.6 354.506,704.915 450.952,704.915 C459.114,704.915 467.191,704.524 475.165,703.759 C477.506,704.389 479.93,704.809 482.405,704.999 C548.231,696.023 606.561,661.798 646.993,612.52 C677.466,576.112 698.149,531.253 704.832,482.238 C704.67,480.128 704.341,478.055 703.857,476.039 C704.667,467.835 705.082,459.522 705.082,451.119 C705.082,354.673 649.767,269.573 570.341,225.605 C649.767,183.055 705.082,95.1189 705.082,0.0910494 C705.082,-96.3552 649.767,-181.455 570.341,-225.423 C649.767,-267.973 705.082,-353.072 705.082,-450.937 C705.082,-458.114 704.79,-465.218 704.218,-472.238 C704.967,-475.415 705.25,-478.776 704.984,-482.238 C697.158,-540.283 670.438,-592.03 631.168,-630.997 C592.2,-670.269 540.451,-696.991 482.405,-704.817 C478.943,-705.083 475.582,-704.8 472.405,-704.051 C465.384,-704.623 458.28,-704.915 451.103,-704.915 C353.239,-704.915 268.139,-649.6 225.59,-570.174 C181.621,-649.6 96.5219,-704.915 0.0757451,-704.915 C-94.9521,-704.915 -182.888,-649.6 -225.438,-570.174 C-269.406,-649.6 -354.506,-704.915 -450.952,-704.915 C-459.114,-704.915 -467.191,-704.524 -475.165,-703.759 L-475.165,-703.759 Z" transform="matrix(1,0,0,1,1024.0,1024.0)"/><path fill="none" stroke="#FA3C4C" stroke-linecap="round" stroke-linejoin="round" stroke-width="116.88" d="M205.502,-76.4829 C205.502,36.6755 113.819,128.358 0.66018,128.358 C-112.498,128.358 -204.181,36.6754 -204.181,-76.4829" transform="matrix(1,0,0,1,1024.0,1024.0)"/></g></g></svg>